<svg width="148" height="105" viewBox="0 0 148 105" fill="none" xmlns="http://www.w3.org/2000/svg">
<path d="M12.056 95.1754V73.7838H8.53857V95.1754H12.056Z" fill="#FEE715"/>
<path d="M14.2087 88.0449C14.2087 92.4152 17.1495 95.5203 21.6183 95.5203C26.087 95.5203 29.0278 92.4152 29.0278 88.0449C29.0278 83.6745 26.087 80.5693 21.6183 80.5693C17.1495 80.5693 14.2087 83.6745 14.2087 88.0449ZM17.7549 88.0449C17.7549 85.4859 19.283 83.7033 21.6183 83.7033C23.9536 83.7033 25.4817 85.4859 25.4817 88.0449C25.4817 90.575 23.9536 92.3864 21.6183 92.3864C19.283 92.3864 17.7549 90.575 17.7549 88.0449Z" fill="#FEE715"/>
<path d="M30.2107 87.7573C30.2107 91.8977 32.8919 94.8879 36.8994 94.8879C38.9753 94.8879 40.7628 94.054 41.6565 92.674V95.0891C41.6565 97.418 40.1862 98.9707 37.7355 98.9707C35.5444 98.9707 34.0452 97.9068 33.8434 96.038H30.2972C30.7584 99.747 33.6127 102.162 37.5337 102.162C42.1467 102.162 45.0874 99.1431 45.0874 94.4566V80.9719H41.9737L41.7719 82.8982C40.907 81.4031 39.1194 80.5117 37.0147 80.5117C32.9495 80.5117 30.2107 83.5882 30.2107 87.7573ZM33.7857 87.671C33.7857 85.3134 35.285 83.5882 37.505 83.5882C39.9268 83.5882 41.5412 85.3422 41.5412 87.671C41.5412 90.0287 39.9268 91.8401 37.505 91.8401C35.3137 91.8401 33.7857 90.0575 33.7857 87.671Z" fill="#FEE715"/>
<path d="M46.8281 88.0449C46.8281 92.4152 49.7689 95.5203 54.2377 95.5203C58.7064 95.5203 61.6472 92.4152 61.6472 88.0449C61.6472 83.6745 58.7064 80.5693 54.2377 80.5693C49.7689 80.5693 46.8281 83.6745 46.8281 88.0449ZM50.3743 88.0449C50.3743 85.4859 51.9024 83.7033 54.2377 83.7033C56.5729 83.7033 58.101 85.4859 58.101 88.0449C58.101 90.575 56.5729 92.3864 54.2377 92.3864C51.9024 92.3864 50.3743 90.575 50.3743 88.0449Z" fill="#FEE715"/>
<path d="M65.4538 78.0679C66.607 78.0679 67.5585 77.1478 67.5585 75.9689C67.5585 74.8189 66.607 73.8989 65.4538 73.8989C64.2718 73.8989 63.3779 74.8189 63.3779 75.9689C63.3779 77.1478 64.2718 78.0679 65.4538 78.0679ZM63.6951 95.1754H67.2125V80.9719H63.6951V95.1754Z" fill="#FEE715"/>
<path d="M70.2942 101.76H73.7249V93.2203C74.6188 94.6866 76.5505 95.5492 78.6839 95.5492C82.8933 95.5492 85.4016 92.3289 85.3438 87.901C85.2574 83.4445 82.6915 80.5405 78.655 80.5405C76.4928 80.5405 74.5323 81.4894 73.6673 83.1282L73.4655 80.9719H70.2942V101.76ZM73.8691 88.0736C73.8691 85.5147 75.4261 83.732 77.8766 83.732C80.3273 83.732 81.7976 85.5434 81.7976 88.0736C81.7976 90.6038 80.3273 92.3864 77.8766 92.3864C75.4261 92.3864 73.8691 90.6326 73.8691 88.0736Z" fill="#FEE715"/>
<path d="M86.2368 90.9201C86.3522 93.7378 88.5433 95.5491 91.9453 95.5491C95.2897 95.5491 97.5674 93.7666 97.5674 91.0063C97.5674 88.9649 96.2988 87.5848 93.9636 87.0098L91.4552 86.4059C90.3885 86.1184 89.6677 85.7447 89.6677 84.8247C89.6677 83.847 90.4461 83.157 91.7147 83.157C93.041 83.157 93.9059 83.9045 93.9059 85.141H97.1061C96.9907 82.3231 94.8861 80.5405 91.8012 80.5405C88.7451 80.5405 86.4675 82.3231 86.4675 85.0259C86.4675 86.8661 87.5342 88.3898 90.2732 89.1087L92.7527 89.7412C93.6752 90 94.2519 90.4312 94.2519 91.2363C94.2519 92.3577 93.1851 92.8752 91.8877 92.8752C90.3309 92.8752 89.437 92.1564 89.437 90.9201H86.2368Z" fill="#FEE715"/>
<path d="M104.863 95.5491C106.795 95.5491 108.64 94.6578 109.476 93.3352L109.707 95.1754H112.994V80.9719H109.476V88.4187C109.476 90.9775 108.496 92.4152 106.19 92.4152C104.402 92.4152 103.162 91.5526 103.162 88.6199V80.9719H99.6448V89.8563C99.6448 93.2489 101.49 95.5491 104.863 95.5491Z" fill="#FEE715"/>
<path d="M119.615 95.1754V87.0098C119.615 84.7096 120.97 83.617 122.643 83.617C124.315 83.617 125.41 84.6808 125.41 86.6935V95.1754H128.841V87.0385C128.841 84.7096 130.168 83.617 131.84 83.617C133.541 83.617 134.636 84.6808 134.636 86.6935V95.1754H138.038V85.8884C138.038 82.6107 136.222 80.5405 132.762 80.5405C130.6 80.5405 128.899 81.5756 128.207 83.2433C127.429 81.5756 125.872 80.5405 123.508 80.5405C121.835 80.5405 120.336 81.3168 119.5 82.5819L119.327 80.9719H116.098V95.1754H119.615Z" fill="#FEE715"/>
<path d="M64.7315 54.4188C60.0977 62.7334 50.6629 66.6892 41.1228 66.6892H2.84619C42.6923 61.723 70.4423 41.8581 74 14.1892C77.5577 41.8581 105.308 61.723 145.154 66.6892H106.877C97.3372 66.6892 87.9024 62.7334 83.2685 54.4188C78.253 45.4196 75.0577 35.2366 74 24.1216C72.9424 35.2366 69.747 45.4196 64.7315 54.4188Z" fill="white"/>
<path d="M42.8418 51.4802C40.6066 52.735 38.2554 53.9135 35.7935 55.0114C34.395 50.1947 33.8804 45.1412 34.2908 40.1072C34.8337 33.4475 36.9787 27.027 40.5359 21.4148C44.0931 15.8025 48.9525 11.1714 54.6838 7.93188C60.4151 4.69234 66.8414 2.94428 73.3934 2.84256C79.9454 2.74082 86.4208 4.28856 92.2462 7.34867C98.0716 10.4088 103.067 14.8867 106.79 20.386C110.513 25.8853 112.849 32.2361 113.59 38.8758C114.197 44.3067 113.721 49.794 112.206 55.0114C109.744 53.9135 107.393 52.7348 105.158 51.4801C106.1 47.6658 106.365 43.6976 105.926 39.7661C105.328 34.4118 103.444 29.2905 100.442 24.8559C97.4396 20.4214 93.4113 16.8102 88.7137 14.3426C84.0161 11.8749 78.7943 10.6268 73.5108 10.7088C68.2272 10.7909 63.0451 12.2005 58.4235 14.8128C53.8018 17.4252 49.8831 21.1596 47.0146 25.6854C44.1461 30.2112 42.4163 35.3886 41.9786 40.759C41.6843 44.3688 41.9797 47.991 42.8418 51.4802Z" fill="#FEE715"/>
</svg>
