<svg width="68" height="48" viewBox="0 0 68 48" fill="none" xmlns="http://www.w3.org/2000/svg">
<path d="M5.49534 43.5088V33.7297H3.89209V43.5088H5.49534Z" fill="#32373B"/>
<path d="M6.47656 40.2491C6.47656 42.2469 7.817 43.6664 9.85389 43.6664C11.8908 43.6664 13.2312 42.2469 13.2312 40.2491C13.2312 38.2512 11.8908 36.8317 9.85389 36.8317C7.817 36.8317 6.47656 38.2512 6.47656 40.2491ZM8.09294 40.2491C8.09294 39.0793 8.78946 38.2644 9.85389 38.2644C10.9183 38.2644 11.6148 39.0793 11.6148 40.2491C11.6148 41.4057 10.9183 42.2338 9.85389 42.2338C8.78946 42.2338 8.09294 41.4057 8.09294 40.2491Z" fill="#32373B"/>
<path d="M13.7705 40.1176C13.7705 42.0104 14.9926 43.3773 16.8193 43.3773C17.7655 43.3773 18.5802 42.9961 18.9876 42.3653V43.4693C18.9876 44.5339 18.3174 45.2438 17.2004 45.2438C16.2016 45.2438 15.5183 44.7574 15.4263 43.9031H13.8099C14.0202 45.5986 15.3212 46.7027 17.1084 46.7027C19.211 46.7027 20.5514 45.3226 20.5514 43.1802V37.0157H19.1322L19.0402 37.8963C18.6459 37.2128 17.8312 36.8054 16.8718 36.8054C15.0189 36.8054 13.7705 38.2118 13.7705 40.1176ZM15.4 40.0782C15.4 39.0004 16.0834 38.2118 17.0953 38.2118C18.1992 38.2118 18.935 39.0136 18.935 40.0782C18.935 41.156 18.1992 41.984 17.0953 41.984C16.0965 41.984 15.4 41.1691 15.4 40.0782Z" fill="#32373B"/>
<path d="M21.3447 40.2491C21.3447 42.2469 22.6852 43.6664 24.722 43.6664C26.7589 43.6664 28.0994 42.2469 28.0994 40.2491C28.0994 38.2512 26.7589 36.8317 24.722 36.8317C22.6852 36.8317 21.3447 38.2512 21.3447 40.2491ZM22.9611 40.2491C22.9611 39.0793 23.6576 38.2644 24.722 38.2644C25.7865 38.2644 26.483 39.0793 26.483 40.2491C26.483 41.4057 25.7865 42.2338 24.722 42.2338C23.6576 42.2338 22.9611 41.4057 22.9611 40.2491Z" fill="#32373B"/>
<path d="M29.8344 35.6882C30.36 35.6882 30.7937 35.2676 30.7937 34.7287C30.7937 34.2029 30.36 33.7823 29.8344 33.7823C29.2956 33.7823 28.8882 34.2029 28.8882 34.7287C28.8882 35.2676 29.2956 35.6882 29.8344 35.6882ZM29.0328 43.5088H30.636V37.0157H29.0328V43.5088Z" fill="#32373B"/>
<path d="M32.0405 46.5187H33.6043V42.615C34.0117 43.2853 34.8922 43.6796 35.8646 43.6796C37.7833 43.6796 38.9266 42.2075 38.9002 40.1833C38.8609 38.1461 37.6913 36.8185 35.8515 36.8185C34.8659 36.8185 33.9723 37.2523 33.578 38.0015L33.486 37.0157H32.0405V46.5187ZM33.67 40.2622C33.67 39.0924 34.3797 38.2775 35.4967 38.2775C36.6137 38.2775 37.2839 39.1055 37.2839 40.2622C37.2839 41.4189 36.6137 42.2338 35.4967 42.2338C34.3797 42.2338 33.67 41.4321 33.67 40.2622Z" fill="#32373B"/>
<path d="M39.3076 41.5635C39.3602 42.8516 40.3589 43.6796 41.9096 43.6796C43.434 43.6796 44.4722 42.8647 44.4722 41.6029C44.4722 40.6697 43.894 40.0388 42.8295 39.7759L41.6862 39.4999C41.2 39.3684 40.8714 39.1976 40.8714 38.777C40.8714 38.3301 41.2263 38.0146 41.8045 38.0146C42.409 38.0146 42.8032 38.3564 42.8032 38.9216H44.2619C44.2093 37.6334 43.25 36.8185 41.8439 36.8185C40.4509 36.8185 39.4128 37.6334 39.4128 38.869C39.4128 39.7102 39.899 40.4068 41.1474 40.7354L42.2776 41.0246C42.6981 41.1429 42.9609 41.34 42.9609 41.7081C42.9609 42.2207 42.4747 42.4572 41.8833 42.4572C41.1737 42.4572 40.7663 42.1286 40.7663 41.5635H39.3076Z" fill="#32373B"/>
<path d="M47.7975 43.6796C48.678 43.6796 49.5191 43.2721 49.9001 42.6675L50.0053 43.5087H51.5034V37.0157H49.9001V40.42C49.9001 41.5897 49.4533 42.2469 48.4021 42.2469C47.5873 42.2469 47.0222 41.8526 47.0222 40.5119V37.0157H45.4189V41.0772C45.4189 42.6281 46.26 43.6796 47.7975 43.6796Z" fill="#32373B"/>
<path d="M54.5217 43.5088V39.7759C54.5217 38.7244 55.1393 38.2249 55.9015 38.2249C56.6637 38.2249 57.1631 38.7112 57.1631 39.6313V43.5088H58.7269V39.789C58.7269 38.7244 59.3314 38.2249 60.0936 38.2249C60.8689 38.2249 61.3683 38.7112 61.3683 39.6313V43.5088H62.919V39.2633C62.919 37.7649 62.0911 36.8185 60.5141 36.8185C59.5285 36.8185 58.7532 37.2917 58.4378 38.0541C58.083 37.2917 57.3734 36.8185 56.2958 36.8185C55.5336 36.8185 54.8502 37.1734 54.4691 37.7518L54.3902 37.0157H52.9185V43.5088H54.5217Z" fill="#32373B"/>
<path d="M29.5051 24.8772C27.393 28.6781 23.0925 30.4865 18.7441 30.4865H1.29736C19.4595 28.2162 32.1082 19.1351 33.7298 6.48648C35.3514 19.1351 48.0001 28.2162 66.1622 30.4865H48.7154C44.367 30.4865 40.0666 28.6781 37.9544 24.8772C35.6683 20.7632 34.2119 16.1081 33.7298 11.027C33.2477 16.1081 31.7912 20.7632 29.5051 24.8772Z" fill="#32373B"/>
<path d="M19.5274 23.5338C18.5086 24.1074 17.4369 24.6462 16.3147 25.148C15.6773 22.9461 15.4428 20.636 15.6298 18.3347C15.8773 15.2903 16.855 12.3552 18.4764 9.78961C20.0978 7.224 22.3127 5.10694 24.9251 3.626C27.5375 2.14507 30.4666 1.34596 33.4531 1.29946C36.4395 1.25295 39.3911 1.96049 42.0463 3.35939C44.7016 4.7583 46.9785 6.80537 48.6754 9.31933C50.3724 11.8333 51.4371 14.7365 51.7751 17.7718C52.0515 20.2545 51.8348 22.763 51.1443 25.148C50.0222 24.6462 48.9505 24.1074 47.9316 23.5338C48.3612 21.7901 48.4815 19.976 48.2814 18.1788C48.0089 15.7311 47.1503 13.3899 45.7819 11.3627C44.4135 9.33549 42.5774 7.68467 40.4362 6.55661C38.295 5.42853 35.9148 4.85797 33.5066 4.89547C31.0983 4.93297 28.7362 5.57738 26.6297 6.77157C24.5231 7.9658 22.7369 9.67298 21.4294 11.7419C20.1219 13.8108 19.3335 16.1776 19.134 18.6327C18.9998 20.2829 19.1345 21.9387 19.5274 23.5338Z" fill="#32373B"/>
</svg>
